<svg width="279" height="32" viewBox="0 0 279 32" fill="none" xmlns="http://www.w3.org/2000/svg">
<path d="M0.924 27V1.8H4.488V21.24L19.392 1.8H22.704V27H19.176V7.596L4.236 27H0.924ZM43.0167 25.38V10.944H34.7367L34.5567 14.616C34.5087 15.816 34.4247 16.98 34.3047 18.108C34.2087 19.212 34.0407 20.232 33.8007 21.168C33.5847 22.104 33.2607 22.872 32.8287 23.472C32.3967 24.072 31.8207 24.444 31.1007 24.588L27.6807 23.976C28.4247 24 29.0247 23.76 29.4807 23.256C29.9367 22.728 30.2847 22.008 30.5247 21.096C30.7887 20.184 30.9807 19.152 31.1007 18C31.2207 16.824 31.3167 15.612 31.3887 14.364L31.6767 7.92H46.4727V25.38H43.0167ZM26.9247 31.428V23.976H49.3887V31.428H46.1487V27H30.2007V31.428H26.9247ZM62.387 27.216C60.347 27.216 58.547 26.796 56.987 25.956C55.451 25.116 54.251 23.964 53.387 22.5C52.547 21.036 52.127 19.356 52.127 17.46C52.127 15.564 52.535 13.884 53.351 12.42C54.191 10.956 55.331 9.816 56.771 9C58.235 8.16 59.879 7.74 61.703 7.74C63.551 7.74 65.183 8.148 66.599 8.964C68.015 9.78 69.119 10.932 69.911 12.42C70.727 13.884 71.135 15.6 71.135 17.568C71.135 17.712 71.123 17.88 71.099 18.072C71.099 18.264 71.087 18.444 71.063 18.612H54.827V16.128H69.263L67.859 16.992C67.883 15.768 67.631 14.676 67.103 13.716C66.575 12.756 65.843 12.012 64.907 11.484C63.995 10.932 62.927 10.656 61.703 10.656C60.503 10.656 59.435 10.932 58.499 11.484C57.563 12.012 56.831 12.768 56.303 13.752C55.775 14.712 55.511 15.816 55.511 17.064V17.64C55.511 18.912 55.799 20.052 56.375 21.06C56.975 22.044 57.803 22.812 58.859 23.364C59.915 23.916 61.127 24.192 62.495 24.192C63.623 24.192 64.643 24 65.555 23.616C66.491 23.232 67.307 22.656 68.003 21.888L69.911 24.12C69.047 25.128 67.967 25.896 66.671 26.424C65.399 26.952 63.971 27.216 62.387 27.216ZM65.015 4.536C64.511 4.536 64.079 4.368 63.719 4.032C63.359 3.672 63.179 3.228 63.179 2.7C63.179 2.148 63.359 1.704 63.719 1.368C64.079 1.008 64.511 0.827998 65.015 0.827998C65.519 0.827998 65.951 1.008 66.311 1.368C66.671 1.704 66.851 2.148 66.851 2.7C66.851 3.228 66.671 3.672 66.311 4.032C65.951 4.368 65.519 4.536 65.015 4.536ZM58.319 4.536C57.815 4.536 57.383 4.368 57.023 4.032C56.663 3.672 56.483 3.228 56.483 2.7C56.483 2.148 56.663 1.704 57.023 1.368C57.383 1.008 57.815 0.827998 58.319 0.827998C58.823 0.827998 59.255 1.008 59.615 1.368C59.975 1.704 60.155 2.148 60.155 2.7C60.155 3.228 59.975 3.672 59.615 4.032C59.255 4.368 58.823 4.536 58.319 4.536ZM79.4678 27V10.044L80.3318 10.944H72.4838V7.92H89.9078V10.944H82.0958L82.9238 10.044V27H79.4678ZM147.618 27V7.92H151.074V16.02H161.946V7.92H165.402V27H161.946V19.008H151.074V27H147.618ZM180.617 27.216C178.577 27.216 176.777 26.796 175.217 25.956C173.681 25.116 172.481 23.964 171.617 22.5C170.777 21.036 170.357 19.356 170.357 17.46C170.357 15.564 170.765 13.884 171.581 12.42C172.421 10.956 173.561 9.816 175.001 9C176.465 8.16 178.109 7.74 179.933 7.74C181.781 7.74 183.413 8.148 184.829 8.964C186.245 9.78 187.349 10.932 188.141 12.42C188.957 13.884 189.365 15.6 189.365 17.568C189.365 17.712 189.353 17.88 189.329 18.072C189.329 18.264 189.317 18.444 189.293 18.612H173.057V16.128H187.493L186.089 16.992C186.113 15.768 185.861 14.676 185.333 13.716C184.805 12.756 184.073 12.012 183.137 11.484C182.225 10.932 181.157 10.656 179.933 10.656C178.733 10.656 177.665 10.932 176.729 11.484C175.793 12.012 175.061 12.768 174.533 13.752C174.005 14.712 173.741 15.816 173.741 17.064V17.64C173.741 18.912 174.029 20.052 174.605 21.06C175.205 22.044 176.033 22.812 177.089 23.364C178.145 23.916 179.357 24.192 180.725 24.192C181.853 24.192 182.873 24 183.785 23.616C184.721 23.232 185.537 22.656 186.233 21.888L188.141 24.12C187.277 25.128 186.197 25.896 184.901 26.424C183.629 26.952 182.201 27.216 180.617 27.216ZM207.443 25.38V10.944H199.163L198.983 14.616C198.935 15.816 198.851 16.98 198.731 18.108C198.635 19.212 198.467 20.232 198.227 21.168C198.011 22.104 197.687 22.872 197.255 23.472C196.823 24.072 196.247 24.444 195.527 24.588L192.107 23.976C192.851 24 193.451 23.76 193.907 23.256C194.363 22.728 194.711 22.008 194.951 21.096C195.215 20.184 195.407 19.152 195.527 18C195.647 16.824 195.743 15.612 195.814 14.364L196.103 7.92H210.898V25.38H207.443ZM191.351 31.428V23.976H213.815V31.428H210.575V27H194.627V31.428H191.351ZM226.813 27.216C224.773 27.216 222.973 26.796 221.413 25.956C219.877 25.116 218.677 23.964 217.813 22.5C216.973 21.036 216.553 19.356 216.553 17.46C216.553 15.564 216.961 13.884 217.777 12.42C218.617 10.956 219.757 9.816 221.197 9C222.661 8.16 224.305 7.74 226.129 7.74C227.977 7.74 229.609 8.148 231.025 8.964C232.441 9.78 233.545 10.932 234.337 12.42C235.153 13.884 235.561 15.6 235.561 17.568C235.561 17.712 235.549 17.88 235.525 18.072C235.525 18.264 235.513 18.444 235.489 18.612H219.253V16.128H233.689L232.285 16.992C232.309 15.768 232.057 14.676 231.529 13.716C231.001 12.756 230.269 12.012 229.333 11.484C228.421 10.932 227.353 10.656 226.129 10.656C224.929 10.656 223.861 10.932 222.925 11.484C221.989 12.012 221.257 12.768 220.729 13.752C220.201 14.712 219.937 15.816 219.937 17.064V17.64C219.937 18.912 220.225 20.052 220.801 21.06C221.401 22.044 222.229 22.812 223.285 23.364C224.341 23.916 225.553 24.192 226.921 24.192C228.049 24.192 229.069 24 229.981 23.616C230.917 23.232 231.733 22.656 232.429 21.888L234.337 24.12C233.473 25.128 232.393 25.896 231.097 26.424C229.825 26.952 228.397 27.216 226.813 27.216ZM237.438 26.964L237.654 24.048C237.822 24.072 237.978 24.096 238.122 24.12C238.266 24.144 238.398 24.156 238.518 24.156C239.286 24.156 239.886 23.892 240.318 23.364C240.774 22.836 241.11 22.14 241.326 21.276C241.542 20.388 241.698 19.392 241.794 18.288C241.89 17.184 241.962 16.08 242.01 14.976L242.334 7.92H256.986V27H253.53V9.936L254.358 10.944H244.566L245.358 9.9L245.106 15.192C245.034 16.872 244.902 18.444 244.71 19.908C244.518 21.372 244.218 22.656 243.81 23.76C243.426 24.864 242.886 25.728 242.19 26.352C241.518 26.976 240.642 27.288 239.562 27.288C239.25 27.288 238.914 27.252 238.554 27.18C238.218 27.132 237.846 27.06 237.438 26.964ZM275.872 27V20.304L276.412 20.952H270.328C267.784 20.952 265.792 20.412 264.352 19.332C262.936 18.252 262.228 16.68 262.228 14.616C262.228 12.408 262.984 10.74 264.496 9.612C266.032 8.484 268.072 7.92 270.616 7.92H278.968V27H275.872ZM262.048 27L267.232 19.692H270.796L265.756 27H262.048ZM275.872 19.224V9.972L276.412 10.944H270.724C269.14 10.944 267.916 11.244 267.052 11.844C266.188 12.42 265.756 13.38 265.756 14.724C265.756 17.22 267.364 18.468 270.58 18.468H276.412L275.872 19.224Z" fill="black"/>
<path d="M105.738 27V3.24L107.286 4.932H100.05V1.8H109.302V27H105.738ZM119.17 27L129.862 3.312L130.798 4.932H115.822L117.622 3.168V9.432H114.166V1.8H133.174V4.248L122.986 27H119.17Z" fill="#0610FF"/>
</svg>
