<svg width="348" height="348" viewBox="0 0 348 348" fill="none" xmlns="http://www.w3.org/2000/svg">
<g filter="url(#filter0_di_3_39623)">
<path d="M292.563 7H55.4368C29.7905 7 9 27.7905 9 53.4368V290.563C9 316.21 29.7905 337 55.4368 337H292.563C318.21 337 339 316.21 339 290.563V53.4368C339 27.7905 318.21 7 292.563 7Z" fill="white"/>
<path d="M292.563 5.97619H55.4368C29.225 5.97619 7.97619 27.225 7.97619 53.4368V290.563C7.97619 316.775 29.225 338.024 55.4368 338.024H292.563C318.775 338.024 340.024 316.775 340.024 290.563V53.4368C340.024 27.225 318.775 5.97619 292.563 5.97619Z" stroke="black" stroke-opacity="0.1" stroke-width="2.04762"/>
</g>
<path d="M120.736 36.844V41.0046C120.736 42.5369 121.978 43.7686 123.51 43.7686H127.671C129.213 43.7686 130.444 42.5272 130.444 40.9949V36.844C130.435 35.302 129.193 34.0703 127.661 34.0703H123.51C121.978 34.0703 120.736 35.3117 120.736 36.844Z" fill="black"/>
<path d="M168.064 43.7686H158.366V37.3677C158.366 35.5466 159.842 34.0703 161.663 34.0703H168.064V43.7686Z" fill="black"/>
<path d="M167.773 43.7686V34.0703H174.174C175.995 34.0703 177.471 35.5466 177.471 37.3677V43.7686H167.773Z" fill="black"/>
<path d="M202.735 43.575V43.769H205.693V40.811H205.499C205.499 42.3434 204.258 43.575 202.735 43.575Z" fill="black"/>
<path d="M205.402 43.7686V37.3677C205.402 35.5466 206.878 34.0703 208.7 34.0703H211.803C213.624 34.0703 215.1 35.5466 215.1 37.3677V43.7686H205.402Z" fill="black"/>
<path d="M111.329 53.1758V46.7749C111.329 44.9538 112.805 43.4775 114.626 43.4775H117.73C119.551 43.4775 121.027 44.9538 121.027 46.7749V53.1758H111.329Z" fill="black"/>
<path d="M139.551 46.2517V50.4123C139.551 51.9446 140.792 53.1763 142.325 53.1763H146.485C148.027 53.1763 149.259 51.9349 149.259 50.4026V46.2517C149.249 44.7097 148.008 43.478 146.476 43.478H142.325C140.792 43.478 139.551 44.7194 139.551 46.2517Z" fill="black"/>
<path d="M155.698 52.9823V53.1762H158.656V50.2183H158.462C158.462 51.7506 157.221 52.9823 155.698 52.9823Z" fill="black"/>
<path d="M168.064 43.478H158.365V53.1763H168.064V43.478Z" fill="black"/>
<path d="M177.471 43.478H167.773V53.1763H177.471V43.478Z" fill="black"/>
<path d="M193.328 52.9823V53.1762H196.286V50.2183H196.092C196.092 51.7506 194.851 52.9823 193.328 52.9823Z" fill="black"/>
<path d="M205.693 53.1758H195.995V46.7749C195.995 44.9538 197.471 43.4775 199.292 43.4775H205.693V53.1758Z" fill="black"/>
<path d="M215.1 43.478H205.402V53.1763H215.1V43.478Z" fill="black"/>
<path d="M224.217 46.2517V50.4123C224.217 51.9446 225.458 53.1763 226.991 53.1763H231.151C232.693 53.1763 233.925 51.9349 233.925 50.4026V46.2517C233.915 44.7097 232.674 43.478 231.141 43.478H226.991C225.458 43.478 224.217 44.7194 224.217 46.2517Z" fill="black"/>
<path d="M121.027 52.8853H111.329V62.5835H121.027V52.8853Z" fill="black"/>
<path d="M146.291 62.389V62.583H149.249V59.625H149.055C149.055 61.1573 147.814 62.389 146.291 62.389Z" fill="black"/>
<path d="M158.657 62.583H148.958V56.1821C148.958 54.361 150.435 52.8847 152.256 52.8847H158.657V62.583Z" fill="black"/>
<path d="M168.064 52.8853H158.365V62.5835H168.064V52.8853Z" fill="black"/>
<path d="M167.773 52.8853H177.471V59.2861C177.471 61.1072 175.995 62.5835 174.174 62.5835H167.773V52.8853Z" fill="black"/>
<path d="M196.286 62.583H189.885C188.064 62.583 186.588 61.1067 186.588 59.2856V56.1821C186.588 54.361 188.064 52.8847 189.885 52.8847H196.286V62.583Z" fill="black"/>
<path d="M205.693 52.8853H195.995V62.5835H205.693V52.8853Z" fill="black"/>
<path d="M215.1 52.8853H205.402V62.5835H215.1V52.8853Z" fill="black"/>
<path d="M214.81 62.583V56.1821C214.81 54.361 216.286 52.8847 218.107 52.8847H221.21C223.032 52.8847 224.508 54.361 224.508 56.1821V62.583H214.81Z" fill="black"/>
<path d="M121.027 62.2925H111.329V71.9908H121.027V62.2925Z" fill="black"/>
<path d="M139.842 71.9907H133.441C131.62 71.9907 130.144 70.5144 130.144 68.6933V65.5899C130.144 63.7687 131.62 62.2924 133.441 62.2924H139.842V71.9907Z" fill="black"/>
<path d="M149.249 62.2925H139.551V71.9908H149.249V62.2925Z" fill="black"/>
<path d="M158.657 62.2925H148.958V71.9908H158.657V62.2925Z" fill="black"/>
<path d="M158.365 62.2925H168.064V68.6933C168.064 70.5145 166.587 71.9908 164.766 71.9908H158.365V62.2925Z" fill="black"/>
<path d="M177.18 65.0662V69.2267C177.18 70.7591 178.422 71.9908 179.954 71.9908H184.114C185.656 71.9908 186.888 70.7494 186.888 69.217V65.0662C186.878 63.5242 185.637 62.2925 184.105 62.2925H179.954C178.422 62.2925 177.18 63.5339 177.18 65.0662Z" fill="black"/>
<path d="M205.693 62.2925H195.995V71.9908H205.693V62.2925Z" fill="black"/>
<path d="M215.1 62.2925H205.402V71.9908H215.1V62.2925Z" fill="black"/>
<path d="M121.027 71.6997H111.329V81.398H121.027V71.6997Z" fill="black"/>
<path d="M120.736 81.3979V74.9971C120.736 73.176 122.213 71.6997 124.034 71.6997H127.137C128.958 71.6997 130.435 73.176 130.435 74.9971V81.3979H120.736Z" fill="black"/>
<path d="M158.657 71.6997H148.958V81.398H158.657V71.6997Z" fill="black"/>
<path d="M196.286 81.3979H189.885C188.064 81.3979 186.588 79.9216 186.588 78.1005V74.9971C186.588 73.176 188.064 71.6997 189.885 71.6997H196.286V81.3979Z" fill="black"/>
<path d="M205.693 71.6997H195.995V81.398H205.693V71.6997Z" fill="black"/>
<path d="M205.402 71.6997H215.1V78.1006C215.1 79.9217 213.624 81.398 211.803 81.398H205.402V71.6997Z" fill="black"/>
<path d="M224.217 81.3979V74.9971C224.217 73.176 225.693 71.6997 227.514 71.6997H230.618C232.439 71.6997 233.915 73.176 233.915 74.9971V81.3979H224.217Z" fill="black"/>
<path d="M121.027 81.1074H111.329V90.8057H121.027V81.1074Z" fill="black"/>
<path d="M130.144 90.8057V84.4048C130.144 82.5837 131.62 81.1074 133.441 81.1074H136.544C138.366 81.1074 139.842 82.5837 139.842 84.4048V90.8057H130.144Z" fill="black"/>
<path d="M158.657 81.1074H148.958V90.8057H158.657V81.1074Z" fill="black"/>
<path d="M168.064 81.1074H158.365V90.8057H168.064V81.1074Z" fill="black"/>
<path d="M177.471 81.1074H167.773V90.8057H177.471V81.1074Z" fill="black"/>
<path d="M177.18 90.8057V84.4048C177.18 82.5837 178.656 81.1074 180.478 81.1074H183.581C185.402 81.1074 186.878 82.5837 186.878 84.4048V90.8057H177.18Z" fill="black"/>
<path d="M233.915 81.1074H224.217V90.8057H233.915V81.1074Z" fill="black"/>
<path d="M121.027 90.5137V96.9145C121.027 98.7356 119.551 100.212 117.73 100.212H114.626C112.805 100.212 111.329 98.7356 111.329 96.9145V90.5137H121.027Z" fill="black"/>
<path d="M127.477 100.018V100.212H130.435V97.2544H130.241C130.241 98.7867 128.999 100.018 127.477 100.018Z" fill="black"/>
<path d="M139.842 90.5137H130.144V100.212H139.842V90.5137Z" fill="black"/>
<path d="M146.291 100.018V100.212H149.249V97.2544H149.055C149.055 98.7867 147.814 100.018 146.291 100.018Z" fill="black"/>
<path d="M158.657 90.5137H148.958V100.212H158.657V90.5137Z" fill="black"/>
<path d="M177.471 90.5137V96.9145C177.471 98.7356 175.995 100.212 174.174 100.212H171.07C169.249 100.212 167.773 98.7356 167.773 96.9145V90.5137H177.471Z" fill="black"/>
<path d="M186.588 93.2874V97.4479C186.588 98.9803 187.829 100.212 189.361 100.212H193.522C195.064 100.212 196.296 98.9706 196.296 97.4382V93.2874C196.286 91.7454 195.045 90.5137 193.512 90.5137H189.361C187.829 90.5137 186.588 91.7551 186.588 93.2874Z" fill="black"/>
<path d="M205.402 100.212V93.8115C205.402 91.9904 206.878 90.5141 208.7 90.5141H211.803C213.624 90.5141 215.1 91.9904 215.1 93.8115V100.212H205.402Z" fill="black"/>
<path d="M233.915 90.5137V96.9145C233.915 98.7356 232.439 100.212 230.618 100.212H227.514C225.693 100.212 224.217 98.7356 224.217 96.9145V90.5137H233.915Z" fill="black"/>
<path d="M130.435 109.62H124.034C122.213 109.62 120.736 108.143 120.736 106.322V103.219C120.736 101.398 122.213 99.9214 124.034 99.9214H130.435V109.62Z" fill="black"/>
<path d="M139.842 99.9214H130.144V109.62H139.842V99.9214Z" fill="black"/>
<path d="M149.249 99.9214H139.551V109.62H149.249V99.9214Z" fill="black"/>
<path d="M158.657 99.9214H148.958V109.62H158.657V99.9214Z" fill="black"/>
<path d="M158.365 109.62V99.9214H164.766C166.587 99.9214 168.064 101.398 168.064 103.219V109.62H158.365Z" fill="black"/>
<path d="M202.735 109.426V109.62H205.693V106.662H205.499C205.499 108.194 204.258 109.426 202.735 109.426Z" fill="black"/>
<path d="M215.1 99.9214H205.402V109.62H215.1V99.9214Z" fill="black"/>
<path d="M214.81 109.62V103.219C214.81 101.398 216.286 99.9214 218.107 99.9214H221.21C223.032 99.9214 224.508 101.398 224.508 103.219V109.62H214.81Z" fill="black"/>
<path d="M52.218 118.833V119.027H55.176V116.069H54.982C54.982 117.602 53.7406 118.833 52.218 118.833Z" fill="black"/>
<path d="M54.885 119.027V112.626C54.885 110.805 56.3613 109.329 58.1824 109.329H61.2859C63.107 109.329 64.5833 110.805 64.5833 112.626V119.027H54.885Z" fill="black"/>
<path d="M92.8052 119.027H86.4043C84.5832 119.027 83.1069 117.551 83.1069 115.73V112.626C83.1069 110.805 84.5832 109.329 86.4043 109.329H92.8052V119.027Z" fill="black"/>
<path d="M102.213 109.329H92.5144V119.027H102.213V109.329Z" fill="black"/>
<path d="M111.62 109.329H101.921V119.027H111.62V109.329Z" fill="black"/>
<path d="M111.329 119.027V112.626C111.329 110.805 112.805 109.329 114.626 109.329H117.73C119.551 109.329 121.027 110.805 121.027 112.626V119.027H111.329Z" fill="black"/>
<path d="M158.657 109.329V119.027H152.256C150.435 119.027 148.958 117.551 148.958 115.729V109.329H158.657Z" fill="black"/>
<path d="M168.064 109.329H158.365V119.027H168.064V109.329Z" fill="black"/>
<path d="M183.92 118.833V119.027H186.878V116.069H186.684C186.684 117.602 185.443 118.833 183.92 118.833Z" fill="black"/>
<path d="M196.286 119.027H186.588V112.626C186.588 110.805 188.064 109.329 189.885 109.329H196.286V119.027Z" fill="black"/>
<path d="M205.693 109.329H195.995V119.027H205.693V109.329Z" fill="black"/>
<path d="M205.402 109.329H215.1V115.729C215.1 117.551 213.624 119.027 211.803 119.027H205.402V109.329Z" fill="black"/>
<path d="M221.55 118.833V119.027H224.508V116.069H224.314C224.314 117.602 223.073 118.833 221.55 118.833Z" fill="black"/>
<path d="M233.915 119.027H224.217V112.626C224.217 110.805 225.693 109.329 227.514 109.329H233.915V119.027Z" fill="black"/>
<path d="M233.624 119.027V112.626C233.624 110.805 235.101 109.329 236.922 109.329H240.025C241.846 109.329 243.323 110.805 243.323 112.626V119.027H233.624Z" fill="black"/>
<path d="M262.137 119.027H255.736C253.915 119.027 252.439 117.551 252.439 115.73V112.626C252.439 110.805 253.915 109.329 255.736 109.329H262.137V119.027Z" fill="black"/>
<path d="M271.544 109.329H261.846V119.027H271.544V109.329Z" fill="black"/>
<path d="M280.952 109.329H271.253V119.027H280.952V109.329Z" fill="black"/>
<path d="M290.359 109.329H280.661V119.027H290.359V109.329Z" fill="black"/>
<path d="M290.068 119.027V109.329H296.469C298.29 109.329 299.766 110.805 299.766 112.626V119.027H290.068Z" fill="black"/>
<path d="M55.176 128.434H48.7752C46.9541 128.434 45.4777 126.958 45.4777 125.137V122.033C45.4777 120.212 46.9541 118.736 48.7752 118.736H55.176V128.434Z" fill="black"/>
<path d="M64.5833 118.736H54.885V128.435H64.5833V118.736Z" fill="black"/>
<path d="M73.9905 118.736H64.2922V128.435H73.9905V118.736Z" fill="black"/>
<path d="M73.6997 128.434V122.033C73.6997 120.212 75.176 118.736 76.9971 118.736H80.1006C81.9217 118.736 83.398 120.212 83.398 122.033V128.434H73.6997Z" fill="black"/>
<path d="M127.477 128.241V128.435H130.435V125.477H130.241C130.241 127.009 128.999 128.241 127.477 128.241Z" fill="black"/>
<path d="M139.842 128.434H130.144V122.033C130.144 120.212 131.62 118.736 133.441 118.736H139.842V128.434Z" fill="black"/>
<path d="M139.551 128.434V118.736H145.952C147.773 118.736 149.249 120.212 149.249 122.033V128.434H139.551Z" fill="black"/>
<path d="M155.698 128.241V128.435H158.656V125.477H158.462C158.462 127.009 157.221 128.241 155.698 128.241Z" fill="black"/>
<path d="M168.064 118.736H158.365V128.435H168.064V118.736Z" fill="black"/>
<path d="M186.878 128.434H177.18V122.033C177.18 120.212 178.656 118.736 180.478 118.736H186.878V128.434Z" fill="black"/>
<path d="M196.286 118.736H186.588V128.435H196.286V118.736Z" fill="black"/>
<path d="M195.995 118.736H205.693V125.137C205.693 126.958 204.217 128.435 202.396 128.435H195.995V118.736Z" fill="black"/>
<path d="M212.143 128.241V128.435H215.101V125.477H214.907C214.907 127.009 213.665 128.241 212.143 128.241Z" fill="black"/>
<path d="M224.508 128.434H214.81V122.033C214.81 120.212 216.286 118.736 218.107 118.736H224.508V128.434Z" fill="black"/>
<path d="M233.915 118.736H224.217V128.435H233.915V118.736Z" fill="black"/>
<path d="M243.031 121.51V125.671C243.031 127.203 244.273 128.435 245.805 128.435H249.966C251.508 128.435 252.739 127.193 252.739 125.661V121.51C252.73 119.968 251.488 118.736 249.956 118.736H245.805C244.273 118.736 243.031 119.978 243.031 121.51Z" fill="black"/>
<path d="M280.952 118.736V128.435H274.551C272.73 128.435 271.253 126.958 271.253 125.137V118.736H280.952Z" fill="black"/>
<path d="M290.359 118.736H280.661V128.435H290.359V118.736Z" fill="black"/>
<path d="M299.766 118.736H290.068V128.435H299.766V118.736Z" fill="black"/>
<path d="M299.476 128.434V118.736H305.876C307.698 118.736 309.174 120.212 309.174 122.033V128.434H299.476Z" fill="black"/>
<path d="M73.9905 128.144H64.2922V137.842H73.9905V128.144Z" fill="black"/>
<path d="M92.8054 137.841H83.1071V131.44C83.1071 129.619 84.5834 128.143 86.4046 128.143H92.8054V137.841Z" fill="black"/>
<path d="M102.213 128.144H92.5144V137.842H102.213V128.144Z" fill="black"/>
<path d="M111.62 128.144H101.921V137.842H111.62V128.144Z" fill="black"/>
<path d="M121.027 128.144H111.329V137.842H121.027V128.144Z" fill="black"/>
<path d="M130.435 128.144H120.736V137.842H130.435V128.144Z" fill="black"/>
<path d="M139.842 128.144H130.144V137.842H139.842V128.144Z" fill="black"/>
<path d="M149.249 128.144H139.551V137.842H149.249V128.144Z" fill="black"/>
<path d="M158.657 128.144H148.958V137.842H158.657V128.144Z" fill="black"/>
<path d="M158.365 128.144H168.064V134.544C168.064 136.366 166.587 137.842 164.766 137.842H158.365V128.144Z" fill="black"/>
<path d="M186.878 128.144H177.18V137.842H186.878V128.144Z" fill="black"/>
<path d="M215.1 137.841H208.699C206.878 137.841 205.402 136.365 205.402 134.544V131.44C205.402 129.619 206.878 128.143 208.699 128.143H215.1V137.841Z" fill="black"/>
<path d="M224.508 128.144H214.81V137.842H224.508V128.144Z" fill="black"/>
<path d="M233.915 128.144H224.217V137.842H233.915V128.144Z" fill="black"/>
<path d="M233.624 137.841V131.44C233.624 129.619 235.101 128.143 236.922 128.143H240.025C241.846 128.143 243.323 129.619 243.323 131.44V137.841H233.624Z" fill="black"/>
<path d="M249.772 137.648V137.842H252.73V134.884H252.536C252.536 136.416 251.294 137.648 249.772 137.648Z" fill="black"/>
<path d="M252.439 137.841V131.44C252.439 129.619 253.915 128.143 255.736 128.143H258.84C260.661 128.143 262.137 129.619 262.137 131.44V137.841H252.439Z" fill="black"/>
<path d="M290.359 128.144V134.544C290.359 136.366 288.883 137.842 287.062 137.842H283.958C282.137 137.842 280.661 136.366 280.661 134.544V128.144H290.359Z" fill="black"/>
<path d="M309.174 128.144V134.544C309.174 136.366 307.698 137.842 305.876 137.842H302.773C300.952 137.842 299.476 136.366 299.476 134.544V128.144H309.174Z" fill="black"/>
<path d="M36.0703 140.325V144.486C36.0703 146.018 37.3117 147.25 38.844 147.25H43.0046C44.5466 147.25 45.7783 146.008 45.7783 144.476V140.325C45.7686 138.783 44.5272 137.551 42.9949 137.551H38.844C37.3117 137.551 36.0703 138.793 36.0703 140.325Z" fill="black"/>
<path d="M64.5833 147.249H58.1824C56.3613 147.249 54.885 145.773 54.885 143.952V140.848C54.885 139.027 56.3613 137.551 58.1824 137.551H64.5833V147.249Z" fill="black"/>
<path d="M64.2922 137.551H73.9905V143.952C73.9905 145.773 72.5142 147.25 70.6931 147.25H64.2922V137.551Z" fill="black"/>
<path d="M80.4399 147.056V147.249H83.3979V144.292H83.2039C83.2039 145.824 81.9626 147.056 80.4399 147.056Z" fill="black"/>
<path d="M92.8052 137.551H83.1069V147.25H92.8052V137.551Z" fill="black"/>
<path d="M121.027 137.551V143.952C121.027 145.773 119.551 147.25 117.73 147.25H114.626C112.805 147.25 111.329 145.773 111.329 143.952V137.551H121.027Z" fill="black"/>
<path d="M158.657 137.551V143.952C158.657 145.773 157.18 147.25 155.359 147.25H152.256C150.435 147.25 148.958 145.773 148.958 143.952V137.551H158.657Z" fill="black"/>
<path d="M186.878 137.551V147.25H180.478C178.656 147.25 177.18 145.773 177.18 143.952V137.551H186.878Z" fill="black"/>
<path d="M196.286 137.551H186.588V147.25H196.286V137.551Z" fill="black"/>
<path d="M195.995 147.249V140.848C195.995 139.027 197.471 137.551 199.292 137.551H202.396C204.217 137.551 205.693 139.027 205.693 140.848V147.249H195.995Z" fill="black"/>
<path d="M224.508 137.551H214.81V147.25H224.508V137.551Z" fill="black"/>
<path d="M240.365 147.056V147.249H243.322V144.292H243.129C243.129 145.824 241.887 147.056 240.365 147.056Z" fill="black"/>
<path d="M252.73 147.249H243.032V140.848C243.032 139.027 244.508 137.551 246.329 137.551H252.73V147.249Z" fill="black"/>
<path d="M252.439 137.551H262.137V143.952C262.137 145.773 260.661 147.25 258.84 147.25H252.439V137.551Z" fill="black"/>
<path d="M45.4778 149.732V153.892C45.4778 155.425 46.7192 156.656 48.2515 156.656H52.4121C53.9541 156.656 55.1858 155.415 55.1858 153.883V149.732C55.1761 148.19 53.9347 146.958 52.4024 146.958H48.2515C46.7192 146.958 45.4778 148.199 45.4778 149.732Z" fill="black"/>
<path d="M83.3979 156.657H76.9971C75.176 156.657 73.6997 155.18 73.6997 153.359V150.256C73.6997 148.435 75.176 146.958 76.9971 146.958H83.3979V156.657Z" fill="black"/>
<path d="M92.8052 146.958H83.1069V156.656H92.8052V146.958Z" fill="black"/>
<path d="M102.213 146.958H92.5144V156.656H102.213V146.958Z" fill="black"/>
<path d="M101.922 156.657V150.256C101.922 148.435 103.398 146.958 105.219 146.958H108.322C110.144 146.958 111.62 148.435 111.62 150.256V156.657H101.922Z" fill="black"/>
<path d="M130.435 156.657H124.034C122.213 156.657 120.736 155.18 120.736 153.359V150.256C120.736 148.435 122.213 146.958 124.034 146.958H130.435V156.657Z" fill="black"/>
<path d="M130.144 156.657V150.256C130.144 148.435 131.62 146.958 133.441 146.958H136.544C138.366 146.958 139.842 148.435 139.842 150.256V156.657H130.144Z" fill="black"/>
<path d="M168.064 156.657H161.663C159.842 156.657 158.366 155.18 158.366 153.359V150.256C158.366 148.435 159.842 146.958 161.663 146.958H168.064V156.657Z" fill="black"/>
<path d="M167.773 156.657V146.958H174.174C175.995 146.958 177.471 148.435 177.471 150.256V156.657H167.773Z" fill="black"/>
<path d="M196.286 146.958H186.588V156.656H196.286V146.958Z" fill="black"/>
<path d="M212.143 156.463V156.657H215.101V153.699H214.907C214.907 155.231 213.665 156.463 212.143 156.463Z" fill="black"/>
<path d="M224.508 146.958H214.81V156.656H224.508V146.958Z" fill="black"/>
<path d="M233.915 146.958H224.217V156.656H233.915V146.958Z" fill="black"/>
<path d="M243.323 146.958H233.624V156.656H243.323V146.958Z" fill="black"/>
<path d="M252.73 146.958H243.031V156.656H252.73V146.958Z" fill="black"/>
<path d="M271.254 156.657V150.256C271.254 148.435 272.73 146.958 274.551 146.958H277.655C279.476 146.958 280.952 148.435 280.952 150.256V156.657H271.254Z" fill="black"/>
<path d="M290.068 149.732V153.892C290.068 155.425 291.309 156.656 292.842 156.656H297.002C298.544 156.656 299.776 155.415 299.776 153.883V149.732C299.766 148.19 298.525 146.958 296.993 146.958H292.842C291.309 146.958 290.068 148.199 290.068 149.732Z" fill="black"/>
<path d="M52.218 165.869V166.063H55.176V163.105H54.982C54.982 164.638 53.7406 165.869 52.218 165.869Z" fill="black"/>
<path d="M54.885 166.064V159.663C54.885 157.842 56.3613 156.366 58.1824 156.366H61.2859C63.107 156.366 64.5833 157.842 64.5833 159.663V166.064H54.885Z" fill="black"/>
<path d="M92.8052 156.366H83.1069V166.064H92.8052V156.366Z" fill="black"/>
<path d="M148.958 159.139V163.3C148.958 164.832 150.2 166.064 151.732 166.064H155.893C157.435 166.064 158.666 164.823 158.666 163.29V159.139C158.657 157.597 157.415 156.366 155.883 156.366H151.732C150.2 156.366 148.958 157.607 148.958 159.139Z" fill="black"/>
<path d="M177.471 156.366V162.767C177.471 164.588 175.995 166.064 174.174 166.064H171.07C169.249 166.064 167.773 164.588 167.773 162.767V156.366H177.471Z" fill="black"/>
<path d="M196.286 156.366V166.064H189.885C188.064 166.064 186.588 164.588 186.588 162.767V156.366H196.286Z" fill="black"/>
<path d="M205.693 156.366H195.995V166.064H205.693V156.366Z" fill="black"/>
<path d="M215.1 156.366H205.402V166.064H215.1V156.366Z" fill="black"/>
<path d="M224.508 156.366H214.81V166.064H224.508V156.366Z" fill="black"/>
<path d="M233.915 156.366H224.217V166.064H233.915V156.366Z" fill="black"/>
<path d="M252.73 156.366V162.767C252.73 164.588 251.254 166.064 249.433 166.064H246.329C244.508 166.064 243.032 164.588 243.032 162.767V156.366H252.73Z" fill="black"/>
<path d="M280.952 156.366H271.253V166.064H280.952V156.366Z" fill="black"/>
<path d="M299.476 166.064V159.663C299.476 157.842 300.952 156.366 302.773 156.366H305.876C307.698 156.366 309.174 157.842 309.174 159.663V166.064H299.476Z" fill="black"/>
<path d="M45.7686 175.471H39.3677C37.5466 175.471 36.0703 173.995 36.0703 172.174V169.07C36.0703 167.249 37.5466 165.773 39.3677 165.773H45.7686V175.471Z" fill="black"/>
<path d="M55.1761 165.773H45.4778V175.471H55.1761V165.773Z" fill="black"/>
<path d="M64.5833 165.773H54.885V175.471H64.5833V165.773Z" fill="black"/>
<path d="M73.9905 165.773H64.2922V175.471H73.9905V165.773Z" fill="black"/>
<path d="M83.3977 165.773H73.6995V175.471H83.3977V165.773Z" fill="black"/>
<path d="M92.8052 165.773H83.1069V175.471H92.8052V165.773Z" fill="black"/>
<path d="M102.213 165.773H92.5144V175.471H102.213V165.773Z" fill="black"/>
<path d="M101.921 175.471V169.07C101.921 167.249 103.398 165.773 105.219 165.773H108.322C110.143 165.773 111.62 167.249 111.62 169.07V175.471H101.921Z" fill="black"/>
<path d="M139.551 168.547V172.707C139.551 174.24 140.792 175.471 142.325 175.471H146.485C148.027 175.471 149.259 174.23 149.259 172.698V168.547C149.249 167.005 148.008 165.773 146.476 165.773H142.325C140.792 165.773 139.551 167.014 139.551 168.547Z" fill="black"/>
<path d="M205.693 165.773H195.995V175.471H205.693V165.773Z" fill="black"/>
<path d="M215.1 165.773H205.402V175.471H215.1V165.773Z" fill="black"/>
<path d="M224.508 165.773H214.81V175.471H224.508V165.773Z" fill="black"/>
<path d="M233.915 165.773H224.217V175.471H233.915V165.773Z" fill="black"/>
<path d="M280.952 165.773H271.253V175.471H280.952V165.773Z" fill="black"/>
<path d="M280.661 175.471V169.07C280.661 167.249 282.137 165.773 283.958 165.773H287.062C288.883 165.773 290.359 167.249 290.359 169.07V175.471H280.661Z" fill="black"/>
<path d="M296.808 175.277V175.471H299.766V172.513H299.572C299.572 174.046 298.331 175.277 296.808 175.277Z" fill="black"/>
<path d="M309.174 165.773H299.476V175.471H309.174V165.773Z" fill="black"/>
<path d="M55.1763 175.181V181.582C55.1763 183.403 53.7 184.879 51.8789 184.879H48.7754C46.9543 184.879 45.478 183.403 45.478 181.582V175.181H55.1763Z" fill="black"/>
<path d="M83.3977 175.181H73.6995V184.879H83.3977V175.181Z" fill="black"/>
<path d="M165.106 184.684V184.878H168.064V181.92H167.87C167.87 183.453 166.629 184.684 165.106 184.684Z" fill="black"/>
<path d="M177.471 184.878H167.773V178.478C167.773 176.656 169.249 175.18 171.07 175.18H177.471V184.878Z" fill="black"/>
<path d="M186.878 175.181H177.18V184.879H186.878V175.181Z" fill="black"/>
<path d="M196.286 175.181H186.588V184.879H196.286V175.181Z" fill="black"/>
<path d="M195.995 175.181H205.693V181.582C205.693 183.403 204.217 184.879 202.396 184.879H195.995V175.181Z" fill="black"/>
<path d="M224.508 175.181H214.81V184.879H224.508V175.181Z" fill="black"/>
<path d="M224.217 175.181H233.915V181.582C233.915 183.403 232.439 184.879 230.618 184.879H224.217V175.181Z" fill="black"/>
<path d="M243.031 184.878V178.478C243.031 176.656 244.508 175.18 246.329 175.18H249.432C251.253 175.18 252.73 176.656 252.73 178.478V184.878H243.031Z" fill="black"/>
<path d="M280.952 175.181V181.582C280.952 183.403 279.475 184.879 277.654 184.879H274.551C272.73 184.879 271.253 183.403 271.253 181.582V175.181H280.952Z" fill="black"/>
<path d="M299.766 184.878H293.365C291.544 184.878 290.068 183.402 290.068 181.581V178.478C290.068 176.656 291.544 175.18 293.365 175.18H299.766V184.878Z" fill="black"/>
<path d="M299.476 175.181H309.174V181.582C309.174 183.403 307.698 184.879 305.876 184.879H299.476V175.181Z" fill="black"/>
<path d="M36.0703 187.361V191.522C36.0703 193.054 37.3117 194.286 38.844 194.286H43.0046C44.5466 194.286 45.7783 193.044 45.7783 191.512V187.361C45.7686 185.819 44.5272 184.587 42.9949 184.587H38.844C37.3117 184.587 36.0703 185.829 36.0703 187.361Z" fill="black"/>
<path d="M64.5833 194.286H58.1824C56.3613 194.286 54.885 192.809 54.885 190.988V187.885C54.885 186.064 56.3613 184.587 58.1824 184.587H64.5833V194.286Z" fill="black"/>
<path d="M73.9905 184.587H64.2922V194.286H73.9905V184.587Z" fill="black"/>
<path d="M83.398 184.587H73.6997V194.286H83.398V184.587Z" fill="black"/>
<path d="M92.8052 184.587H83.1069V194.286H92.8052V184.587Z" fill="black"/>
<path d="M102.213 184.587H92.5144V194.286H102.213V184.587Z" fill="black"/>
<path d="M111.62 184.587H101.921V194.286H111.62V184.587Z" fill="black"/>
<path d="M111.329 194.286V184.587H117.73C119.551 184.587 121.027 186.064 121.027 187.885V194.286H111.329Z" fill="black"/>
<path d="M127.477 194.092V194.286H130.435V191.328H130.241C130.241 192.86 128.999 194.092 127.477 194.092Z" fill="black"/>
<path d="M130.144 194.286V187.885C130.144 186.064 131.62 184.587 133.441 184.587H136.544C138.366 184.587 139.842 186.064 139.842 187.885V194.286H130.144Z" fill="black"/>
<path d="M158.657 194.286H148.958V187.885C148.958 186.064 150.435 184.587 152.256 184.587H158.657V194.286Z" fill="black"/>
<path d="M168.064 184.587H158.365V194.286H168.064V184.587Z" fill="black"/>
<path d="M177.471 184.587H167.773V194.286H177.471V184.587Z" fill="black"/>
<path d="M177.18 184.587H186.878V190.988C186.878 192.809 185.402 194.286 183.581 194.286H177.18V184.587Z" fill="black"/>
<path d="M215.101 194.286H205.402V187.885C205.402 186.064 206.879 184.587 208.7 184.587H215.101V194.286Z" fill="black"/>
<path d="M224.508 184.587H214.81V194.286H224.508V184.587Z" fill="black"/>
<path d="M252.73 184.587H243.031V194.286H252.73V184.587Z" fill="black"/>
<path d="M42.8108 203.499V203.693H45.7688V200.735H45.5748C45.5748 202.268 44.3334 203.499 42.8108 203.499Z" fill="black"/>
<path d="M45.4778 203.693V197.292C45.4778 195.471 46.9541 193.995 48.7752 193.995H51.8786C53.6998 193.995 55.1761 195.471 55.1761 197.292V203.693H45.4778Z" fill="black"/>
<path d="M111.62 193.995V203.693H105.219C103.398 203.693 101.922 202.217 101.922 200.395V193.995H111.62Z" fill="black"/>
<path d="M121.027 193.995H111.329V203.693H121.027V193.995Z" fill="black"/>
<path d="M130.435 193.995H120.736V203.693H130.435V193.995Z" fill="black"/>
<path d="M139.842 193.995H130.144V203.693H139.842V193.995Z" fill="black"/>
<path d="M158.657 193.995H148.958V203.693H158.657V193.995Z" fill="black"/>
<path d="M168.064 193.995H158.365V203.693H168.064V193.995Z" fill="black"/>
<path d="M177.471 193.995H167.773V203.693H177.471V193.995Z" fill="black"/>
<path d="M186.588 203.693V197.292C186.588 195.471 188.064 193.995 189.885 193.995H192.989C194.81 193.995 196.286 195.471 196.286 197.292V203.693H186.588Z" fill="black"/>
<path d="M215.1 193.995V203.693H208.699C206.878 203.693 205.402 202.217 205.402 200.395V193.995H215.1Z" fill="black"/>
<path d="M224.508 193.995H214.81V203.693H224.508V193.995Z" fill="black"/>
<path d="M224.217 203.693V197.292C224.217 195.471 225.693 193.995 227.514 193.995H230.618C232.439 193.995 233.915 195.471 233.915 197.292V203.693H224.217Z" fill="black"/>
<path d="M252.73 193.995V203.693H246.329C244.508 203.693 243.032 202.217 243.032 200.395V193.995H252.73Z" fill="black"/>
<path d="M252.439 203.693V193.995H258.84C260.661 193.995 262.137 195.471 262.137 197.292V203.693H252.439Z" fill="black"/>
<path d="M280.952 203.693H274.551C272.73 203.693 271.253 202.217 271.253 200.395V197.292C271.253 195.471 272.73 193.995 274.551 193.995H280.952V203.693Z" fill="black"/>
<path d="M280.661 203.693V197.292C280.661 195.471 282.137 193.995 283.958 193.995H287.062C288.883 193.995 290.359 195.471 290.359 197.292V203.693H280.661Z" fill="black"/>
<path d="M299.476 203.693V197.292C299.476 195.471 300.952 193.995 302.773 193.995H305.876C307.698 193.995 309.174 195.471 309.174 197.292V203.693H299.476Z" fill="black"/>
<path d="M45.7686 213.1H39.3677C37.5466 213.1 36.0703 211.623 36.0703 209.802V206.699C36.0703 204.878 37.5466 203.401 39.3677 203.401H45.7686V213.1Z" fill="black"/>
<path d="M55.1761 203.402H45.4778V213.1H55.1761V203.402Z" fill="black"/>
<path d="M54.885 213.1V203.401H61.2859C63.107 203.401 64.5833 204.878 64.5833 206.699V213.1H54.885Z" fill="black"/>
<path d="M92.5144 206.176V210.336C92.5144 211.868 93.7558 213.1 95.2881 213.1H99.4487C100.991 213.1 102.222 211.859 102.222 210.326V206.176C102.213 204.634 100.971 203.402 99.439 203.402H95.2881C93.7558 203.402 92.5144 204.643 92.5144 206.176Z" fill="black"/>
<path d="M130.435 203.402H120.736V213.1H130.435V203.402Z" fill="black"/>
<path d="M130.144 203.402H139.842V209.803C139.842 211.624 138.366 213.1 136.544 213.1H130.144V203.402Z" fill="black"/>
<path d="M146.291 212.907V213.101H149.249V210.143H149.055C149.055 211.675 147.814 212.907 146.291 212.907Z" fill="black"/>
<path d="M158.657 203.402H148.958V213.1H158.657V203.402Z" fill="black"/>
<path d="M177.471 203.402V209.803C177.471 211.624 175.995 213.1 174.174 213.1H171.07C169.249 213.1 167.773 211.624 167.773 209.803V203.402H177.471Z" fill="black"/>
<path d="M196.286 203.402H186.588V213.1H196.286V203.402Z" fill="black"/>
<path d="M195.995 213.1V203.401H202.396C204.217 203.401 205.693 204.878 205.693 206.699V213.1H195.995Z" fill="black"/>
<path d="M224.508 203.402V209.803C224.508 211.624 223.032 213.1 221.21 213.1H218.107C216.286 213.1 214.81 211.624 214.81 209.803V203.402H224.508Z" fill="black"/>
<path d="M262.137 203.402H252.439V213.1H262.137V203.402Z" fill="black"/>
<path d="M261.846 213.1V206.699C261.846 204.878 263.322 203.401 265.144 203.401H268.247C270.068 203.401 271.544 204.878 271.544 206.699V213.1H261.846Z" fill="black"/>
<path d="M309.174 203.402V209.803C309.174 211.624 307.698 213.1 305.876 213.1H302.773C300.952 213.1 299.476 211.624 299.476 209.803V203.402H309.174Z" fill="black"/>
<path d="M64.5833 212.81V222.508H58.1824C56.3613 222.508 54.885 221.032 54.885 219.21V212.81H64.5833Z" fill="black"/>
<path d="M64.2925 222.507V216.106C64.2925 214.285 65.7688 212.809 67.5899 212.809H70.6933C72.5145 212.809 73.9908 214.285 73.9908 216.106V222.507H64.2925Z" fill="black"/>
<path d="M83.1069 215.583V219.744C83.1069 221.276 84.3483 222.508 85.8806 222.508H90.0412C91.5832 222.508 92.8149 221.266 92.8149 219.734V215.583C92.8052 214.041 91.5638 212.81 90.0315 212.81H85.8806C84.3483 212.81 83.1069 214.051 83.1069 215.583Z" fill="black"/>
<path d="M118.069 222.314V222.508H121.027V219.55H120.833C120.833 221.082 119.592 222.314 118.069 222.314Z" fill="black"/>
<path d="M130.435 212.81H120.736V222.508H130.435V212.81Z" fill="black"/>
<path d="M136.884 222.314V222.508H139.842V219.55H139.648C139.648 221.082 138.407 222.314 136.884 222.314Z" fill="black"/>
<path d="M149.249 222.507H139.551V216.106C139.551 214.285 141.027 212.809 142.848 212.809H149.249V222.507Z" fill="black"/>
<path d="M158.657 212.81H148.958V222.508H158.657V212.81Z" fill="black"/>
<path d="M158.366 222.507V216.106C158.366 214.285 159.842 212.809 161.663 212.809H164.767C166.588 212.809 168.064 214.285 168.064 216.106V222.507H158.366Z" fill="black"/>
<path d="M196.286 212.81H186.588V222.508H196.286V212.81Z" fill="black"/>
<path d="M205.693 212.81H195.995V222.508H205.693V212.81Z" fill="black"/>
<path d="M205.402 222.507V212.809H211.803C213.624 212.809 215.1 214.285 215.1 216.106V222.507H205.402Z" fill="black"/>
<path d="M230.957 222.314V222.508H233.915V219.55H233.721C233.721 221.082 232.48 222.314 230.957 222.314Z" fill="black"/>
<path d="M243.323 222.507H233.624V216.106C233.624 214.285 235.101 212.809 236.922 212.809H243.323V222.507Z" fill="black"/>
<path d="M252.73 212.81H243.031V222.508H252.73V212.81Z" fill="black"/>
<path d="M262.137 212.81H252.439V222.508H262.137V212.81Z" fill="black"/>
<path d="M268.586 222.314V222.508H271.544V219.55H271.35C271.35 221.082 270.109 222.314 268.586 222.314Z" fill="black"/>
<path d="M271.254 222.507V216.106C271.254 214.285 272.73 212.809 274.551 212.809H277.655C279.476 212.809 280.952 214.285 280.952 216.106V222.507H271.254Z" fill="black"/>
<path d="M45.7686 231.915H39.3677C37.5466 231.915 36.0703 230.439 36.0703 228.618V225.514C36.0703 223.693 37.5466 222.217 39.3677 222.217H45.7686V231.915Z" fill="black"/>
<path d="M45.4778 231.915V225.514C45.4778 223.693 46.9541 222.217 48.7752 222.217H51.8786C53.6998 222.217 55.1761 223.693 55.1761 225.514V231.915H45.4778Z" fill="black"/>
<path d="M73.6995 224.991V229.151C73.6995 230.683 74.9408 231.915 76.4732 231.915H80.6337C82.1758 231.915 83.4074 230.674 83.4074 229.141V224.991C83.3977 223.448 82.1564 222.217 80.624 222.217H76.4732C74.9408 222.217 73.6995 223.458 73.6995 224.991Z" fill="black"/>
<path d="M102.213 231.915H95.8118C93.9907 231.915 92.5144 230.439 92.5144 228.618V225.514C92.5144 223.693 93.9907 222.217 95.8118 222.217H102.213V231.915Z" fill="black"/>
<path d="M111.62 222.217H101.921V231.915H111.62V222.217Z" fill="black"/>
<path d="M121.027 222.217H111.329V231.915H121.027V222.217Z" fill="black"/>
<path d="M130.435 222.217H120.736V231.915H130.435V222.217Z" fill="black"/>
<path d="M139.842 222.217H130.144V231.915H139.842V222.217Z" fill="black"/>
<path d="M139.551 222.217H149.249V228.618C149.249 230.439 147.773 231.915 145.952 231.915H139.551V222.217Z" fill="black"/>
<path d="M165.106 231.722V231.915H168.064V228.958H167.87C167.87 230.49 166.629 231.722 165.106 231.722Z" fill="black"/>
<path d="M167.773 231.915V225.514C167.773 223.693 169.249 222.217 171.07 222.217H174.174C175.995 222.217 177.471 223.693 177.471 225.514V231.915H167.773Z" fill="black"/>
<path d="M183.92 231.722V231.915H186.878V228.958H186.684C186.684 230.49 185.443 231.722 183.92 231.722Z" fill="black"/>
<path d="M196.286 222.217H186.588V231.915H196.286V222.217Z" fill="black"/>
<path d="M205.693 222.217H195.995V231.915H205.693V222.217Z" fill="black"/>
<path d="M215.1 222.217H205.402V231.915H215.1V222.217Z" fill="black"/>
<path d="M221.55 231.722V231.915H224.508V228.958H224.314C224.314 230.49 223.073 231.722 221.55 231.722Z" fill="black"/>
<path d="M233.915 231.915H224.217V225.514C224.217 223.693 225.693 222.217 227.514 222.217H233.915V231.915Z" fill="black"/>
<path d="M243.323 222.217H233.624V231.915H243.323V222.217Z" fill="black"/>
<path d="M252.73 222.217H243.031V231.915H252.73V222.217Z" fill="black"/>
<path d="M262.137 222.217H252.439V231.915H262.137V222.217Z" fill="black"/>
<path d="M271.544 222.217H261.846V231.915H271.544V222.217Z" fill="black"/>
<path d="M280.952 222.217H271.253V231.915H280.952V222.217Z" fill="black"/>
<path d="M290.068 224.991V229.151C290.068 230.683 291.309 231.915 292.842 231.915H297.002C298.544 231.915 299.776 230.674 299.776 229.141V224.991C299.766 223.448 298.525 222.217 296.993 222.217H292.842C291.309 222.217 290.068 223.458 290.068 224.991Z" fill="black"/>
<path d="M121.027 231.624H111.329V241.322H121.027V231.624Z" fill="black"/>
<path d="M168.064 241.322H161.663C159.842 241.322 158.366 239.846 158.366 238.025V234.921C158.366 233.1 159.842 231.624 161.663 231.624H168.064V241.322Z" fill="black"/>
<path d="M177.471 231.624H167.773V241.322H177.471V231.624Z" fill="black"/>
<path d="M186.878 231.624H177.18V241.322H186.878V231.624Z" fill="black"/>
<path d="M196.286 231.624H186.588V241.322H196.286V231.624Z" fill="black"/>
<path d="M215.1 231.624V241.322H208.699C206.878 241.322 205.402 239.846 205.402 238.025V231.624H215.1Z" fill="black"/>
<path d="M224.508 231.624H214.81V241.322H224.508V231.624Z" fill="black"/>
<path d="M233.915 231.624H224.217V241.322H233.915V231.624Z" fill="black"/>
<path d="M271.544 231.624H261.846V241.322H271.544V231.624Z" fill="black"/>
<path d="M280.952 231.624H271.253V241.322H280.952V231.624Z" fill="black"/>
<path d="M299.476 241.322V234.921C299.476 233.1 300.952 231.624 302.773 231.624H305.876C307.698 231.624 309.174 233.1 309.174 234.921V241.322H299.476Z" fill="black"/>
<path d="M121.027 241.032H111.329V250.73H121.027V241.032Z" fill="black"/>
<path d="M186.878 241.032V250.73H180.478C178.656 250.73 177.18 249.254 177.18 247.433V241.032H186.878Z" fill="black"/>
<path d="M186.588 241.032H196.286V247.433C196.286 249.254 194.81 250.73 192.989 250.73H186.588V241.032Z" fill="black"/>
<path d="M233.915 241.032H224.217V250.73H233.915V241.032Z" fill="black"/>
<path d="M243.031 243.805V247.966C243.031 249.498 244.273 250.73 245.805 250.73H249.966C251.508 250.73 252.739 249.489 252.739 247.956V243.805C252.73 242.263 251.488 241.032 249.956 241.032H245.805C244.273 241.032 243.031 242.273 243.031 243.805Z" fill="black"/>
<path d="M271.544 241.032H261.846V250.73H271.544V241.032Z" fill="black"/>
<path d="M280.952 241.032H271.253V250.73H280.952V241.032Z" fill="black"/>
<path d="M280.661 250.73V244.329C280.661 242.508 282.137 241.032 283.958 241.032H287.062C288.883 241.032 290.359 242.508 290.359 244.329V250.73H280.661Z" fill="black"/>
<path d="M296.808 250.536V250.73H299.766V247.772H299.572C299.572 249.305 298.331 250.536 296.808 250.536Z" fill="black"/>
<path d="M309.174 241.032H299.476V250.73H309.174V241.032Z" fill="black"/>
<path d="M121.027 250.439V260.137H114.626C112.805 260.137 111.329 258.661 111.329 256.84V250.439H121.027Z" fill="black"/>
<path d="M120.736 260.137V250.439H127.137C128.958 250.439 130.435 251.915 130.435 253.736V260.137H120.736Z" fill="black"/>
<path d="M149.249 260.137H139.551V253.736C139.551 251.915 141.027 250.439 142.848 250.439H149.249V260.137Z" fill="black"/>
<path d="M158.657 250.439H148.958V260.137H158.657V250.439Z" fill="black"/>
<path d="M168.064 250.439H158.365V260.137H168.064V250.439Z" fill="black"/>
<path d="M167.773 260.137V250.439H174.174C175.995 250.439 177.471 251.915 177.471 253.736V260.137H167.773Z" fill="black"/>
<path d="M212.143 259.943V260.137H215.101V257.179H214.907C214.907 258.711 213.665 259.943 212.143 259.943Z" fill="black"/>
<path d="M224.508 260.137H214.81V253.736C214.81 251.915 216.286 250.439 218.107 250.439H224.508V260.137Z" fill="black"/>
<path d="M233.915 250.439H224.217V260.137H233.915V250.439Z" fill="black"/>
<path d="M259.179 259.943V260.137H262.137V257.179H261.943C261.943 258.711 260.702 259.943 259.179 259.943Z" fill="black"/>
<path d="M271.544 250.439H261.846V260.137H271.544V250.439Z" fill="black"/>
<path d="M271.253 250.439H280.952V256.84C280.952 258.661 279.475 260.137 277.654 260.137H271.253V250.439Z" fill="black"/>
<path d="M299.766 260.137H290.068V253.736C290.068 251.915 291.544 250.439 293.365 250.439H299.766V260.137Z" fill="black"/>
<path d="M309.174 250.439H299.476V260.137H309.174V250.439Z" fill="black"/>
<path d="M130.435 259.847V266.248C130.435 268.069 128.958 269.545 127.137 269.545H124.034C122.213 269.545 120.736 268.069 120.736 266.248V259.847H130.435Z" fill="black"/>
<path d="M149.25 259.847V266.248C149.25 268.069 147.773 269.545 145.952 269.545H142.849C141.028 269.545 139.551 268.069 139.551 266.248V259.847H149.25Z" fill="black"/>
<path d="M168.064 259.847V269.545H161.663C159.842 269.545 158.366 268.069 158.366 266.248V259.847H168.064Z" fill="black"/>
<path d="M177.471 259.847H167.773V269.545H177.471V259.847Z" fill="black"/>
<path d="M177.18 269.544V263.144C177.18 261.322 178.656 259.846 180.478 259.846H183.581C185.402 259.846 186.878 261.322 186.878 263.144V269.544H177.18Z" fill="black"/>
<path d="M202.735 269.35V269.544H205.693V266.586H205.499C205.499 268.119 204.258 269.35 202.735 269.35Z" fill="black"/>
<path d="M215.1 269.544H205.402V263.144C205.402 261.322 206.878 259.846 208.699 259.846H215.1V269.544Z" fill="black"/>
<path d="M224.508 259.847H214.81V269.545H224.508V259.847Z" fill="black"/>
<path d="M233.915 259.847H224.217V269.545H233.915V259.847Z" fill="black"/>
<path d="M243.323 259.847H233.624V269.545H243.323V259.847Z" fill="black"/>
<path d="M252.73 259.847H243.031V269.545H252.73V259.847Z" fill="black"/>
<path d="M262.137 259.847H252.439V269.545H262.137V259.847Z" fill="black"/>
<path d="M271.544 259.847H261.846V269.545H271.544V259.847Z" fill="black"/>
<path d="M287.401 269.35V269.544H290.359V266.586H290.165C290.165 268.119 288.924 269.35 287.401 269.35Z" fill="black"/>
<path d="M299.766 259.847H290.068V269.545H299.766V259.847Z" fill="black"/>
<path d="M299.476 259.847H309.174V266.248C309.174 268.069 307.698 269.545 305.876 269.545H299.476V259.847Z" fill="black"/>
<path d="M130.144 272.028V276.188C130.144 277.721 131.385 278.952 132.917 278.952H137.078C138.62 278.952 139.852 277.711 139.852 276.178V272.028C139.842 270.486 138.6 269.254 137.068 269.254H132.917C131.385 269.254 130.144 270.495 130.144 272.028Z" fill="black"/>
<path d="M146.291 278.758V278.952H149.249V275.994H149.055C149.055 277.526 147.814 278.758 146.291 278.758Z" fill="black"/>
<path d="M148.958 278.952V272.551C148.958 270.73 150.435 269.254 152.256 269.254H155.359C157.18 269.254 158.657 270.73 158.657 272.551V278.952H148.958Z" fill="black"/>
<path d="M177.471 269.254H167.773V278.952H177.471V269.254Z" fill="black"/>
<path d="M205.693 278.952H195.995V272.551C195.995 270.73 197.471 269.254 199.292 269.254H205.693V278.952Z" fill="black"/>
<path d="M215.1 269.254H205.402V278.952H215.1V269.254Z" fill="black"/>
<path d="M224.508 269.254H214.81V278.952H224.508V269.254Z" fill="black"/>
<path d="M224.217 269.254H233.915V275.655C233.915 277.476 232.439 278.952 230.618 278.952H224.217V269.254Z" fill="black"/>
<path d="M262.137 269.254V278.952H255.736C253.915 278.952 252.439 277.476 252.439 275.655V269.254H262.137Z" fill="black"/>
<path d="M271.544 269.254H261.846V278.952H271.544V269.254Z" fill="black"/>
<path d="M280.952 269.254H271.254V278.952H280.952V269.254Z" fill="black"/>
<path d="M290.359 269.254H280.661V278.952H290.359V269.254Z" fill="black"/>
<path d="M299.766 269.254H290.068V278.952H299.766V269.254Z" fill="black"/>
<path d="M111.329 281.435V285.595C111.329 287.128 112.57 288.359 114.103 288.359H118.263C119.805 288.359 121.037 287.118 121.037 285.586V281.435C121.027 279.893 119.786 278.661 118.253 278.661H114.103C112.57 278.661 111.329 279.903 111.329 281.435Z" fill="black"/>
<path d="M149.25 288.359H139.551V281.959C139.551 280.137 141.028 278.661 142.849 278.661H149.25V288.359Z" fill="black"/>
<path d="M158.657 278.661H148.958V288.359H158.657V278.661Z" fill="black"/>
<path d="M177.471 278.661H167.773V288.359H177.471V278.661Z" fill="black"/>
<path d="M205.693 278.661V288.359H199.292C197.471 288.359 195.995 286.883 195.995 285.062V278.661H205.693Z" fill="black"/>
<path d="M205.402 278.661H215.1V285.062C215.1 286.883 213.624 288.359 211.803 288.359H205.402V278.661Z" fill="black"/>
<path d="M230.957 288.165V288.359H233.915V285.401H233.721C233.721 286.933 232.48 288.165 230.957 288.165Z" fill="black"/>
<path d="M233.624 288.359V281.959C233.624 280.137 235.101 278.661 236.922 278.661H240.025C241.846 278.661 243.323 280.137 243.323 281.959V288.359H233.624Z" fill="black"/>
<path d="M271.544 278.661V288.359H265.144C263.322 288.359 261.846 286.883 261.846 285.062V278.661H271.544Z" fill="black"/>
<path d="M280.952 278.661H271.253V288.359H280.952V278.661Z" fill="black"/>
<path d="M299.766 278.661V288.359H293.365C291.544 288.359 290.068 286.883 290.068 285.062V278.661H299.766Z" fill="black"/>
<path d="M299.476 288.359V281.959C299.476 280.137 300.952 278.661 302.773 278.661H305.876C307.698 278.661 309.174 280.137 309.174 281.959V288.359H299.476Z" fill="black"/>
<path d="M120.736 290.842V295.002C120.736 296.534 121.978 297.766 123.51 297.766H127.671C129.213 297.766 130.444 296.525 130.444 294.992V290.842C130.435 289.3 129.193 288.068 127.661 288.068H123.51C121.978 288.068 120.736 289.309 120.736 290.842Z" fill="black"/>
<path d="M149.249 288.068H139.551V297.766H149.249V288.068Z" fill="black"/>
<path d="M158.657 288.068H148.958V297.766H158.657V288.068Z" fill="black"/>
<path d="M177.471 288.068V294.469C177.471 296.29 175.995 297.766 174.174 297.766H171.07C169.249 297.766 167.773 296.29 167.773 294.469V288.068H177.471Z" fill="black"/>
<path d="M233.915 297.766H224.217V291.365C224.217 289.544 225.693 288.067 227.514 288.067H233.915V297.766Z" fill="black"/>
<path d="M243.323 288.068H233.624V297.766H243.323V288.068Z" fill="black"/>
<path d="M243.031 297.766V288.067H249.432C251.253 288.067 252.73 289.544 252.73 291.365V297.766H243.031Z" fill="black"/>
<path d="M280.952 288.068V294.469C280.952 296.29 279.475 297.766 277.654 297.766H274.551C272.73 297.766 271.253 296.29 271.253 294.469V288.068H280.952Z" fill="black"/>
<path d="M149.249 297.476V307.174H142.848C141.027 307.174 139.551 305.698 139.551 303.876V297.476H149.249Z" fill="black"/>
<path d="M148.958 297.476H158.657V303.876C158.657 305.698 157.18 307.174 155.359 307.174H148.958V297.476Z" fill="black"/>
<path d="M196.286 307.173H189.885C188.064 307.173 186.588 305.697 186.588 303.876V300.772C186.588 298.951 188.064 297.475 189.885 297.475H196.286V307.173Z" fill="black"/>
<path d="M205.693 297.476H195.995V307.174H205.693V297.476Z" fill="black"/>
<path d="M205.402 307.173V300.772C205.402 298.951 206.878 297.475 208.7 297.475H211.803C213.624 297.475 215.1 298.951 215.1 300.772V307.173H205.402Z" fill="black"/>
<path d="M233.915 297.476V303.876C233.915 305.698 232.439 307.174 230.618 307.174H227.514C225.693 307.174 224.217 305.698 224.217 303.876V297.476H233.915Z" fill="black"/>
<path d="M252.73 297.476V307.174H246.329C244.508 307.174 243.032 305.698 243.032 303.876V297.476H252.73Z" fill="black"/>
<path d="M262.137 297.476H252.439V307.174H262.137V297.476Z" fill="black"/>
<path d="M261.846 307.173V300.772C261.846 298.951 263.322 297.475 265.144 297.475H268.247C270.068 297.475 271.544 298.951 271.544 300.772V307.173H261.846Z" fill="black"/>
<path d="M299.475 300.249V304.41C299.475 305.942 300.717 307.174 302.249 307.174H306.41C307.952 307.174 309.183 305.932 309.183 304.4V300.249C309.174 298.707 307.932 297.476 306.4 297.476H302.249C300.717 297.476 299.475 298.717 299.475 300.249Z" fill="black"/>
<path d="M94.2601 78.4234V57.604C94.2601 48.3629 93.003 46.1081 92.4623 45.5662C91.9205 45.0255 89.6657 43.7684 80.4234 43.7684H59.6052C50.3629 43.7684 48.1081 45.0255 47.5674 45.5662C47.0267 46.1081 45.7684 48.3629 45.7684 57.604V78.4234C45.7684 87.6657 47.0267 89.9205 47.5674 90.4623C48.1081 91.0018 50.3629 92.2601 59.6052 92.2601H80.4234C89.6657 92.2601 91.9205 91.0018 92.4623 90.4623C93.003 89.9205 94.2601 87.6657 94.2601 78.4234ZM80.4234 34.0703C99.4329 34.0703 103.958 38.5957 103.958 57.604C103.958 76.6135 103.958 59.4151 103.958 78.4234C103.958 97.4329 99.4329 101.958 80.4234 101.958C61.4151 101.958 78.6135 101.958 59.6052 101.958C40.5957 101.958 36.0703 97.4329 36.0703 78.4234C36.0703 59.4151 36.0703 68.2198 36.0703 57.604C36.0703 38.5957 40.5957 34.0703 59.6052 34.0703C78.6135 34.0703 61.4151 34.0703 80.4234 34.0703ZM74.4752 53.4669C82.6224 53.4669 84.5617 55.4073 84.5617 63.5522C84.5617 71.6995 84.5617 64.3291 84.5617 72.4752C84.5617 80.6212 82.6224 82.5617 74.4752 82.5617C66.3291 82.5617 73.6995 82.5617 65.5534 82.5617C57.4073 82.5617 55.4669 80.6212 55.4669 72.4752C55.4669 64.3291 55.4669 68.1021 55.4669 63.5522C55.4669 55.4073 57.4073 53.4669 65.5534 53.4669C73.6995 53.4669 66.3291 53.4669 74.4752 53.4669Z" fill="black"/>
<path d="M299.088 78.4234V57.604C299.088 48.3629 297.831 46.1081 297.29 45.5662C296.748 45.0255 294.493 43.7684 285.251 43.7684H264.433C255.191 43.7684 252.936 45.0255 252.395 45.5662C251.854 46.1081 250.596 48.3629 250.596 57.604V78.4234C250.596 87.6657 251.854 89.9205 252.395 90.4623C252.936 91.0018 255.191 92.2601 264.433 92.2601H285.251C294.493 92.2601 296.748 91.0018 297.29 90.4623C297.831 89.9205 299.088 87.6657 299.088 78.4234ZM285.251 34.0703C304.26 34.0703 308.786 38.5957 308.786 57.604C308.786 76.6135 308.786 59.4151 308.786 78.4234C308.786 97.4329 304.26 101.958 285.251 101.958C266.243 101.958 283.441 101.958 264.433 101.958C245.423 101.958 240.898 97.4329 240.898 78.4234C240.898 59.4151 240.898 68.2198 240.898 57.604C240.898 38.5957 245.423 34.0703 264.433 34.0703C283.441 34.0703 266.243 34.0703 285.251 34.0703ZM279.303 53.4669C287.45 53.4669 289.389 55.4073 289.389 63.5522C289.389 71.6995 289.389 64.3291 289.389 72.4752C289.389 80.6212 287.45 82.5617 279.303 82.5617C271.157 82.5617 278.527 82.5617 270.381 82.5617C262.235 82.5617 260.294 80.6212 260.294 72.4752C260.294 64.3291 260.294 68.1021 260.294 63.5522C260.294 55.4073 262.235 53.4669 270.381 53.4669C278.527 53.4669 271.157 53.4669 279.303 53.4669Z" fill="black"/>
<path d="M94.2601 283.251V262.432C94.2601 253.191 93.003 250.936 92.4623 250.394C91.9205 249.853 89.6657 248.596 80.4234 248.596H59.6052C50.3629 248.596 48.1081 249.853 47.5674 250.394C47.0267 250.936 45.7684 253.191 45.7684 262.432V283.251C45.7684 292.493 47.0267 294.748 47.5674 295.29C48.1081 295.829 50.3629 297.088 59.6052 297.088H80.4234C89.6657 297.088 91.9205 295.829 92.4623 295.29C93.003 294.748 94.2601 292.493 94.2601 283.251ZM80.4234 238.898C99.4329 238.898 103.958 243.423 103.958 262.432C103.958 281.441 103.958 264.243 103.958 283.251C103.958 302.26 99.4329 306.786 80.4234 306.786C61.4151 306.786 78.6135 306.786 59.6052 306.786C40.5957 306.786 36.0703 302.26 36.0703 283.251C36.0703 264.243 36.0703 273.047 36.0703 262.432C36.0703 243.423 40.5957 238.898 59.6052 238.898C78.6135 238.898 61.4151 238.898 80.4234 238.898ZM74.4752 258.294C82.6224 258.294 84.5617 260.235 84.5617 268.38C84.5617 276.527 84.5617 269.157 84.5617 277.303C84.5617 285.449 82.6224 287.389 74.4752 287.389C66.3291 287.389 73.6995 287.389 65.5534 287.389C57.4073 287.389 55.4669 285.449 55.4669 277.303C55.4669 269.157 55.4669 272.93 55.4669 268.38C55.4669 260.235 57.4073 258.294 65.5534 258.294C73.6995 258.294 66.3291 258.294 74.4752 258.294Z" fill="black"/>
<defs>
<filter id="filter0_di_3_39623" x="0.809535" y="0.85691" width="346.381" height="346.381" filterUnits="userSpaceOnUse" color-interpolation-filters="sRGB">
<feFlood flood-opacity="0" result="BackgroundImageFix"/>
<feColorMatrix in="SourceAlpha" type="matrix" values="0 0 0 0 0 0 0 0 0 0 0 0 0 0 0 0 0 0 127 0" result="hardAlpha"/>
<feOffset dy="2.04762"/>
<feGaussianBlur stdDeviation="3.07143"/>
<feColorMatrix type="matrix" values="0 0 0 0 0 0 0 0 0 0 0 0 0 0 0 0 0 0 0.2 0"/>
<feBlend mode="hard-light" in2="BackgroundImageFix" result="effect1_dropShadow_3_39623"/>
<feBlend mode="normal" in="SourceGraphic" in2="effect1_dropShadow_3_39623" result="shape"/>
<feColorMatrix in="SourceAlpha" type="matrix" values="0 0 0 0 0 0 0 0 0 0 0 0 0 0 0 0 0 0 127 0" result="hardAlpha"/>
<feOffset dx="-2.04762" dy="-6.14286"/>
<feComposite in2="hardAlpha" operator="arithmetic" k2="-1" k3="1"/>
<feColorMatrix type="matrix" values="0 0 0 0 0 0 0 0 0 0 0 0 0 0 0 0 0 0 0.1 0"/>
<feBlend mode="hard-light" in2="shape" result="effect2_innerShadow_3_39623"/>
</filter>
</defs>
</svg>
