<svg width="166" height="171" viewBox="0 0 166 171" fill="none" xmlns="http://www.w3.org/2000/svg">
<path id="Vector" fill-rule="evenodd" clip-rule="evenodd" d="M127.37 3.66749e-06C119.726 -0.00331662 112.252 2.2479 105.895 6.46891C99.5375 10.69 94.5814 16.6912 91.6538 23.7135C88.7262 30.7358 87.9585 38.4639 89.4478 45.9202C90.937 53.3765 94.6163 60.2261 100.02 65.6027C105.424 70.9793 112.31 74.6413 119.807 76.1256C127.304 77.6099 135.076 76.8498 142.138 73.9415C149.201 71.0331 155.237 66.107 159.485 59.7865C163.732 53.4659 165.999 46.0347 165.999 38.4327C165.999 28.2426 161.929 18.4697 154.686 11.2626C147.442 4.05556 137.616 0.00445271 127.37 3.66749e-06ZM127.37 65.7215C121.938 65.7248 116.627 64.1258 112.109 61.1267C107.591 58.1276 104.069 53.8632 101.989 48.873C99.9091 43.8829 99.3638 38.3913 100.423 33.0929C101.482 27.7946 104.097 22.9276 107.938 19.1078C111.779 15.2881 116.673 12.6871 122 11.634C127.328 10.5811 132.85 11.1232 137.868 13.192C142.886 15.2608 147.174 18.7632 150.19 23.2562C153.205 27.7491 154.813 33.0306 154.81 38.4327C154.806 45.6687 151.913 52.6072 146.768 57.7239C141.623 62.8405 134.646 65.7171 127.37 65.7215ZM19.1259 167.627C16.8507 167.63 14.6257 166.961 12.7329 165.705C10.8401 164.449 9.36477 162.664 8.49365 160.573C7.62253 158.483 7.39491 156.182 7.83964 153.964C8.28437 151.744 9.38143 149.707 10.9918 148.108L77.8709 81.581C80.0508 79.5475 82.9405 78.4373 85.9289 78.4848C88.9172 78.5324 91.7697 79.734 93.8831 81.8358C95.9964 83.9374 97.2048 86.7743 97.2526 89.7461C97.3004 92.7179 96.184 95.5918 94.1394 97.7596L27.2601 164.286C25.1006 166.428 22.1752 167.629 19.1259 167.627ZM59.241 169.078C61.1338 170.334 63.3588 171.003 65.6341 171C67.1416 171.003 68.6348 170.709 70.0279 170.136C71.4209 169.562 72.6863 168.721 73.7514 167.661L135.5 106.252C137.545 104.084 138.661 101.21 138.613 98.2384C138.566 95.2666 137.357 92.4298 135.244 90.3281C133.131 88.2264 130.278 87.0247 127.29 86.9771C124.301 86.9296 121.412 88.0399 119.232 90.0733L57.4999 151.481C55.8895 153.08 54.7924 155.118 54.3477 157.337C53.903 159.556 54.1306 161.857 55.0017 163.947C55.8728 166.037 57.3483 167.824 59.241 169.078ZM12.8135 124.478C10.5383 124.476 8.31479 123.804 6.42362 122.546C4.53244 121.289 3.05854 119.501 2.18811 117.411C1.31768 115.32 1.08977 113.02 1.53318 110.801C1.97658 108.581 3.0714 106.543 4.67933 104.942L37.6549 72.1655C38.722 71.0978 39.99 70.2495 41.3868 69.669C42.7836 69.0886 44.2817 68.7875 45.7953 68.7828C47.3092 68.7781 48.8091 69.07 50.2094 69.6418C51.6097 70.2136 52.8831 71.0541 53.9569 72.1152C55.0306 73.1764 55.8838 74.4375 56.4674 75.8266C57.051 77.2157 57.3538 78.7054 57.3585 80.2109C57.3632 81.7164 57.0697 83.208 56.4947 84.6006C55.9198 85.9933 55.0746 87.2596 54.0075 88.3275L20.9476 121.121C19.8814 122.186 18.6138 123.031 17.2177 123.607C15.8217 124.184 14.3249 124.479 12.8135 124.478ZM76.8573 60.5021C76.8573 66.6567 71.8403 71.6459 65.6517 71.6459C59.463 71.6459 54.4461 66.6567 54.4461 60.5021C54.4461 54.3476 59.463 49.3583 65.6517 49.3583C71.8403 49.3583 76.8573 54.3476 76.8573 60.5021ZM15.0701 11.0596H73.714C74.3518 11.0921 74.9671 11.3038 75.4887 11.6703C76.0103 12.0369 76.4167 12.543 76.6605 13.13C76.9044 13.717 76.9758 14.3608 76.8665 14.9865C76.7571 15.6122 76.4715 16.1943 76.0427 16.6651L5.61968 86.6829C5.14588 87.1042 4.56209 87.384 3.9355 87.4898C3.30891 87.5957 2.66499 87.5235 2.07783 87.2816C1.49068 87.0396 0.984158 86.6376 0.616573 86.122C0.248984 85.6063 0.0352645 84.998 9.45185e-06 84.3669V26.0634C-0.00220855 24.0939 0.385956 22.1432 1.14231 20.323C1.89867 18.5027 3.00838 16.8485 4.40799 15.4551C5.80761 14.0616 7.46968 12.9562 9.29918 12.202C11.1286 11.4478 13.0897 11.0596 15.0701 11.0596ZM144.169 170.312H95.9037C95.2691 170.277 94.6573 170.064 94.1388 169.699C93.6203 169.333 93.2162 168.829 92.9728 168.246C92.7295 167.662 92.657 167.021 92.7635 166.398C92.8699 165.775 93.1512 165.194 93.5749 164.723L153.568 105.01C154.046 104.569 154.642 104.275 155.284 104.164C155.926 104.052 156.586 104.128 157.186 104.382C157.785 104.636 158.298 105.057 158.663 105.594C159.027 106.131 159.227 106.762 159.239 107.41V155.325C159.239 159.299 157.651 163.112 154.825 165.922C151.999 168.732 148.165 170.312 144.169 170.312Z" fill="url(#paint0_linear_3_39607)"/>
<defs>
<linearGradient id="paint0_linear_3_39607" x1="-45" y1="11.4975" x2="297.431" y2="331.002" gradientUnits="userSpaceOnUse">
<stop stop-color="#FF2E21"/>
<stop offset="0.256368" stop-color="#FF0F00"/>
<stop offset="0.528987" stop-color="#F8AD08"/>
<stop offset="1" stop-color="#F8C408"/>
</linearGradient>
</defs>
</svg>
